<?xml version="1.0" encoding="UTF-8" standalone="no"?><!DOCTYPE svg PUBLIC "-//W3C//DTD SVG 1.1//EN" "http://www.w3.org/Graphics/SVG/1.1/DTD/svg11.dtd"><svg width="100%" height="100%" viewBox="0 0 540 675" version="1.1" xmlns="http://www.w3.org/2000/svg" xmlns:xlink="http://www.w3.org/1999/xlink" xml:space="preserve" xmlns:serif="http://www.serif.com/" style="fill-rule:evenodd;clip-rule:evenodd;stroke-linejoin:round;stroke-miterlimit:2;"><g id="Icon"><path d="M229.136,402.883c10.663,-6.093 128.61,-73.49 132.796,-77.012c7.898,-6.645 1.381,-73.9 3.04,-93.77c1.014,-12.146 66.122,-82.193 80.52,-102.787c0.366,-0.524 8.36,-11.957 7.869,1.396c-1.056,28.723 -0.383,28.515 0.641,192.449c0.106,17.009 3.993,20.11 -10.269,29.077c-3.398,2.136 -240.822,139.144 -248.509,143.488c-85.581,48.37 -83.956,51.07 -91.638,54.805c-0.552,0.268 -10.822,1.51 -1.499,-7.519c14.67,-14.206 74.961,-89.373 96.284,-114.64c13.075,-15.493 13.937,-14.456 30.764,-25.489Z" style="fill:#F59E0B;"/><path d="M151.663,381.892c19.166,-23.077 38.287,-48.575 41.514,-52.878c19.938,-26.587 20.63,-26.255 49.422,-42.569c18.71,-10.602 6.248,-24.962 12.351,-36.313c3.994,-7.429 55.931,-72.256 60.898,-78.457c12.571,-15.691 25.783,-37.692 25.905,-23.533c0.108,12.61 1.328,154.701 1.005,157.628c-0.929,8.424 -3.846,7.076 -85.692,54.946c-12.535,7.331 -156.392,91.469 -156.841,91.366c-6.788,-1.547 1.551,-3.818 51.438,-70.191Z" style="fill:#F59E0B;"/><path d="M174.18,306.609c-51.605,28.947 -68.558,40.216 -74.313,44.041c-0.555,0.369 -26.355,17.142 -7.62,-3.369c11.042,-12.088 17.215,-18.847 125.599,-161.577c13.497,-17.774 12.865,-20.793 17.253,-18.777c0.076,0.035 0.045,0.015 0.767,47.756c0.768,50.787 2.979,54.703 -6.065,59.794c-4.478,2.521 -31.591,17.782 -55.621,32.132Z" style="fill:#F59E0B;"/></g></svg>