<?xml version="1.0" encoding="UTF-8" standalone="no"?><!DOCTYPE svg PUBLIC "-//W3C//DTD SVG 1.1//EN" "http://www.w3.org/Graphics/SVG/1.1/DTD/svg11.dtd"><svg width="100%" height="100%" viewBox="0 0 9595 1649" version="1.1" xmlns="http://www.w3.org/2000/svg" xmlns:xlink="http://www.w3.org/1999/xlink" xml:space="preserve" xmlns:serif="http://www.serif.com/" style="fill-rule:evenodd;clip-rule:evenodd;stroke-linejoin:round;stroke-miterlimit:2;"><path d="M1644.625,951.667l-1618.083,696.958l558.375,-533.5l699.5,-301.292l44.125,-409.208l423.542,-404.625l-107.458,951.667Z" style="fill:#f59e0b;fill-rule:nonzero;"/><path d="M1136.417,726.583l-408.708,176.042l-255,109.833l-450.875,194.208l571.792,-578.417l179.833,-77.417l12.458,-117.083l428.833,-433.75l-36.458,338.333l-8.042,74.583l-8.083,74.583l-25.75,239.083Z" style="fill:#f59e0b;fill-rule:nonzero;"/><path d="M677.417,494.625l-101.792,43.833l-118.417,51.042l-457.208,196.917l725.875,-747l-33.208,311.917l-8.208,77.042l-7.042,66.25Z" style="fill:#f59e0b;fill-rule:nonzero;"/><g><path d="M2733.083,1190.125l0,-671.458l-278.083,671.458l-67.833,0l-276.708,-671.458l0,671.458l-158.708,0l0,-904.792l223.833,0l245.542,595.5l246.875,-595.5l223.833,0l0,904.792l-158.75,0Z" style="fill:#f59e0b;fill-rule:nonzero;"/><rect x="3057.292" y="285.333" width="158.708" height="904.792" style="fill:#f59e0b;fill-rule:nonzero;"/><path d="M3871.167,1190.125l-200.75,-337.75l-157.333,0l0,337.75l-158.708,0l0,-904.792l397.458,0c179.042,0 295.708,116.667 295.708,283.5c0,166.833 -105.792,248.25 -214.333,265.875l221.125,355.417l-183.167,0Zm13.583,-621.25c0,-86.833 -65.125,-143.792 -154.625,-143.792l-217.042,0l0,287.583l217.042,0c89.542,0 154.625,-56.958 154.625,-143.792Z" style="fill:#f59e0b;fill-rule:nonzero;"/><path d="M4668.792,1190.125l-200.75,-337.75l-157.333,0l0,337.75l-158.708,0l0,-904.792l397.458,0c179.042,0 295.708,116.667 295.708,283.5c0,166.833 -105.792,248.25 -214.333,265.875l221.125,355.417l-183.167,0Zm13.583,-621.25c0,-86.833 -65.125,-143.792 -154.625,-143.792l-217.042,0l0,287.583l217.042,0c89.542,0 154.625,-56.958 154.625,-143.792Z" style="fill:#f59e0b;fill-rule:nonzero;"/><path d="M4881.75,738.417c0,-269.958 191.25,-468 462.583,-468c271.333,0 462.583,198.042 462.583,468c0,269.958 -191.25,468 -462.583,468c-271.333,0 -462.583,-198.042 -462.583,-468Zm762.375,0c0,-187.208 -118,-326.917 -299.792,-326.917c-181.792,0 -299.792,139.708 -299.792,326.917c0,187.208 116.667,326.917 299.792,326.917c183.125,0 299.792,-141.083 299.792,-326.917Z" style="fill:#f59e0b;fill-rule:nonzero;"/><path d="M6395.625,1190.125l-200.75,-337.75l-157.333,0l0,337.75l-158.708,0l0,-904.792l397.458,0c179.042,0 295.708,116.667 295.708,283.5c0,166.833 -105.792,248.25 -214.333,265.875l221.125,355.417l-183.167,0Zm13.583,-621.25c0,-86.833 -65.125,-143.792 -154.625,-143.792l-217.042,0l0,287.583l217.042,0c89.542,0 154.625,-56.958 154.625,-143.792Z" style="fill:#f59e0b;fill-rule:nonzero;"/></g><g><path d="M6741.958,1186.458l0,-904.792l77.333,-0l0,834.25l438.167,0l0,70.542l-515.5,0Z" style="fill:#fff;fill-rule:nonzero;"/><path d="M8053.708,1186.458l-89.542,-222.458l-478.833,0l-89.542,222.458l-89.542,0l370.333,-904.792l96.333,-0l370.333,904.792l-89.542,0Zm-329.625,-822.042l-212.958,529.042l427.292,0l-214.333,-529.042Z" style="fill:#fff;fill-rule:nonzero;"/><path d="M8194.792,1186.458l0,-904.792l371.708,-0c151.917,0 249.583,88.167 249.583,230.625c0,113.958 -77.333,191.25 -158.708,207.542c96.333,14.917 176.333,115.292 176.333,222.458c0,150.583 -97.667,244.167 -259.083,244.167l-379.833,0Zm539.875,-666.042c0,-92.25 -61.042,-168.208 -177.708,-168.208l-284.875,0l0,335.042l284.875,0c116.667,0 177.708,-73.25 177.708,-166.833Zm17.667,416.458c0,-92.25 -63.75,-179.042 -189.917,-179.042l-290.292,0l0,358.125l290.292,0c119.375,0 189.917,-69.167 189.917,-179.042l0,-0.042Z" style="fill:#fff;fill-rule:nonzero;"/><path d="M8869,1058.958l50.208,-58.333c58.333,67.833 153.292,131.583 282.167,131.583c185.833,0 238.75,-103.083 238.75,-180.417c0,-265.875 -542.583,-127.5 -542.583,-443.583c0,-147.875 132.917,-241.458 297.083,-241.458c135.667,0 236.042,47.458 306.583,127.5l-51.542,56.958c-65.125,-78.667 -157.375,-113.958 -259.083,-113.958c-120.708,0 -211.625,69.167 -211.625,166.833c0,231.958 542.583,104.458 542.583,442.208c0,116.667 -77.333,256.375 -321.5,256.375c-149.208,0 -261.792,-59.708 -331,-143.792l-0.042,0.083Z" style="fill:#fff;fill-rule:nonzero;"/></g></svg>
