<?xml version="1.0" encoding="UTF-8" standalone="no"?><!DOCTYPE svg PUBLIC "-//W3C//DTD SVG 1.1//EN" "http://www.w3.org/Graphics/SVG/1.1/DTD/svg11.dtd"><svg width="100%" height="100%" viewBox="0 0 1290 279" version="1.1" xmlns="http://www.w3.org/2000/svg" xmlns:xlink="http://www.w3.org/1999/xlink" xml:space="preserve" xmlns:serif="http://www.serif.com/" style="fill-rule:evenodd;clip-rule:evenodd;stroke-linejoin:round;stroke-miterlimit:2;"><g id="Background"><path d="M660.363,213.965c-23.933,0.791 -66.489,-17.416 -59.899,-72.25c1.335,-11.112 10.806,-34.218 32.405,-43.705c40.617,-17.841 89.958,5.507 87.774,58.735c-1.286,31.354 -24.231,56.635 -60.279,57.22Zm2.503,-103.229c-7.054,0.182 -7.004,0.117 -7.609,0.185c-22.139,2.488 -33.715,22.461 -34.276,39.509c-1.226,37.273 32.338,54.701 59.678,39.307c27.994,-15.762 26.446,-75.414 -17.794,-79.002Z" style="fill:#F59E0B;"/><path d="M316.742,127.858c-0.953,3.195 -0.701,3.211 -6.583,17.478c-24.962,60.542 -24.495,60.742 -27.32,65.682c-0.927,1.621 -8.712,2.909 -10.49,-1.278c-20.327,-47.847 -30.474,-75.102 -32.933,-81.706c-2.474,-6.644 -2.466,0.705 -2.453,0.914c0.397,6.341 0.613,9.798 0.482,79.421c-0.01,5.336 -2.326,3.992 -7.672,4c-7.718,0.012 -13.174,1.018 -13.307,-2.769c-0.008,-0.237 -0.009,-113.058 0.001,-113.255c0.188,-3.479 3.969,-2.66 17.082,-2.66c8.608,-0 11.057,-2.965 14.37,4.938c9.067,21.627 27.836,67.442 28.526,69.405c1.313,3.734 2.45,1.635 2.542,1.421c15.331,-35.867 14.22,-36.281 29.693,-72.037c1.967,-4.545 3.006,-3.718 7.964,-3.726c21.601,-0.038 22.19,-0.208 22.771,1.322c0.437,1.15 0.356,115.033 0.041,115.939c-0.926,2.658 -19.608,1.304 -20.085,0.937c-0.953,-0.734 -0.891,-1.029 -0.881,-67.725c0.002,-16.808 0.901,-17.063 0.245,-17.359c-0.301,-0.136 -0.453,0.779 -0.754,0.643c-0.414,0.138 -0.828,0.276 -1.242,0.414Z" style="fill:#F59E0B;"/><path d="M1110.535,184.413c-0.281,3.242 -2.189,25.287 -29.646,27.852c-3.057,0.286 -41.71,0.122 -45.336,0.106c-4.828,-0.02 -3.764,-2.421 -3.764,-19.109c-0,-97.722 -0.087,-97.91 0.674,-98.728c0.914,-0.983 1.174,-0.85 42.123,-0.848c43.067,0.002 40.414,44.031 19.814,54.922c-3.05,1.613 -4.824,1.356 -3.408,3.07c1.266,1.532 12.225,1.831 18.71,20.225c0.985,2.794 0.849,11.507 0.833,12.51Zm-39.727,-35.89c5.312,-0.036 29.211,2.097 31.52,-23.245c0.922,-10.121 -6.351,-25.271 -22.739,-25.979c-3.383,-0.146 -39.937,-0.082 -40.185,-0.031c-2.298,0.477 -1.868,1.542 -1.868,26.006c0,21.315 -0.771,23.286 3.066,23.333c15.129,0.184 15.073,-0.084 30.206,-0.084Zm0,5.123c-31.09,-0 -31.226,-0.017 -31.623,0.08c-2.097,0.512 -1.649,2.219 -1.649,20.651c-0,30.744 -0.373,31.653 1.86,32.378c2.129,0.691 35.846,0.101 38.963,0.047c27.044,-0.473 31.235,-28.837 21.221,-42.363c-8.303,-11.216 -21.296,-10.957 -28.771,-10.793Z" style="fill:#F59E0B;"/><path d="M525.06,183.189c-0,27.558 0.412,28.633 -1.9,29.12c-0.128,0.027 -16.425,0.262 -17.654,-0.172c-1.603,-0.567 -1.4,-1.281 -1.4,-64.2c-0,-52.809 -0.216,-53.533 1.411,-54.1c0.362,-0.126 50.847,-0.905 59.074,0.482c36.352,6.131 37.779,51.915 16.217,65.868c-9.139,5.914 -15.032,3.989 -11.387,9.338c1.936,2.84 1.227,3.233 22.63,36.526c0.019,0.03 3.479,4.569 2.502,5.799c-0.986,1.241 -1.279,0.782 -19.807,0.516c-4.531,-0.065 -3.609,-2.113 -24.504,-36.383c-4.529,-7.428 -4.618,-8.061 -8.226,-8.081c-15.804,-0.086 -15.829,0.236 -16.143,0.47c-1.095,0.818 -0.812,5.33 -0.812,14.818Zm0,-45.325c0,3.792 -0.04,3.746 -0.087,7.553c-0.07,5.705 2.485,4.238 8.227,4.239c18.276,0.001 37.581,2.875 40.215,-16.837c1.498,-11.207 -8.231,-20.274 -17.527,-20.57c-2.417,-0.077 -28.801,-0.915 -30.221,0.457c-0.754,0.729 -0.609,1.33 -0.609,25.158Z" style="fill:#F59E0B;"/><path d="M730.12,184.448l0,-52.879c-0,-36.345 -0.365,-37.456 1.983,-37.913c0.317,-0.062 47.93,-0.136 52.907,0.054c32.379,1.234 42.602,34.237 32.069,54.517c-10.125,19.493 -25.932,14.343 -22.42,20.04c23.51,38.134 24.093,37.77 25.676,41.326c1.344,3.019 -0.544,2.805 -3.852,2.779c-16.497,-0.127 -17.801,1.374 -20.765,-3.632c-1.865,-3.15 -22.608,-38.174 -23.456,-39.287c-2.196,-2.879 -20.021,-1.549 -20.685,-0.837c-1.298,1.392 -0.371,31.02 -0.646,41.006c-0.062,2.247 -1.35,2.597 -2.413,2.725c-0.209,0.025 -15.98,0.059 -16.421,-0.028c-2.407,-0.471 -1.977,-1.586 -1.977,-27.872Zm69.317,-54.152c-0.046,-0.708 -0.359,-5.526 -2.185,-8.602c-6.504,-10.958 -14.807,-9.627 -42.469,-9.554c-5.371,0.014 -3.842,4.792 -3.842,9.356c-0,26.383 -0.565,28.017 2.539,28.143c28.867,1.169 34.08,-1.366 36.73,-2.653c8.623,-4.192 9.153,-15.166 9.226,-16.689Z" style="fill:#F59E0B;"/><path d="M420.56,194.521c-0,14.227 0.983,17.809 -3.186,17.849c-15.45,0.15 -17.188,0.381 -17.369,-2.758c-0.015,-0.252 -0.016,-113 0.001,-113.278c0.237,-3.906 2.393,-3.122 48.84,-2.729c6.521,0.055 36.209,-0.884 41.546,31.669c2.07,12.626 -3.572,27.412 -11.783,33.442c-11.349,8.334 -16.44,5.284 -14.433,9.261c1.322,2.619 1.698,2.361 19.287,31.187c0.819,1.343 5.294,8.425 5.756,9.157c0.175,0.276 2.473,3.915 -0.01,4.086c-3.112,0.215 -17.447,-0.017 -18.964,-0.042c-4.031,-0.065 -4.328,-3.101 -15.413,-21.439c-12.835,-21.232 -12.324,-23.006 -17.316,-23.025c-13.916,-0.053 -16.179,-0.25 -16.737,1.258c-0.27,0.73 -0.218,1.656 -0.218,25.362Zm0,-56.656c0,3.792 -0.04,3.746 -0.087,7.553c-0.07,5.705 2.485,4.238 8.227,4.239c20.734,0.002 37.279,2.658 40.479,-16.805c0.885,-5.381 -2.029,-15.77 -11.449,-19.103c-2.573,-0.911 -5.826,-2.062 -34.081,-1.606c-2.677,0.043 -3.053,0.375 -3.088,3.032c-0.002,0.172 -0.002,20.875 -0.002,22.69Z" style="fill:#F59E0B;"/><path d="M96.147,174.098c3.836,-2.192 46.268,-26.439 47.774,-27.705c2.841,-2.39 0.497,-26.586 1.094,-33.734c0.365,-4.37 23.788,-29.57 28.968,-36.978c0.132,-0.188 3.007,-4.302 2.831,0.502c-0.38,10.333 -0.138,10.258 0.23,69.235c0.038,6.119 1.436,7.235 -3.694,10.461c-1.222,0.769 -86.637,50.058 -89.403,51.621c-30.788,17.401 -30.204,18.373 -32.967,19.716c-0.198,0.096 -3.893,0.543 -0.539,-2.705c5.277,-5.111 26.968,-32.152 34.639,-41.243c4.704,-5.574 5.014,-5.201 11.068,-9.17Z" style="fill:#F59E0B;"/><path d="M977.97,103.721c10.733,26.241 44.545,106.57 44.466,107.176c-0.251,1.947 -5.549,2.234 -6.719,-0.181c-3.215,-6.636 -11.137,-28.634 -13.172,-29.521c-0.782,-0.341 -0.812,-0.357 -57.641,-0.347c-5.884,0.001 -7.092,-0.774 -9.348,4.645c-10.42,25.034 -9.916,25.725 -12.101,26.545c-1.604,0.602 -6.219,1.119 -4.843,-2.36c8.771,-22.183 41.837,-100.706 45.517,-109.445c0.75,-1.78 1.804,-8.195 8.474,-6.432c1.273,0.336 1.357,0.505 5.367,9.921Zm18.065,59.525c-0.93,-2.235 -16.986,-41.456 -18.667,-45.399c-6.297,-14.772 -5.071,-15.605 -6.363,-16.104c-2.42,-0.935 -1.697,0.742 -2.514,3.219c-1.671,5.065 -2.018,4.899 -25.25,61.705c-2.264,5.535 -5.593,8.724 0.408,8.691c50.955,-0.28 50.904,0.228 55.323,-0.007c2.536,-0.134 0.09,-4.691 -2.937,-12.106Z" style="fill:#F59E0B;"/><path d="M68.276,166.547c6.895,-8.302 13.774,-17.475 14.935,-19.023c7.173,-9.565 7.422,-9.445 17.78,-15.315c6.731,-3.814 2.248,-8.98 4.443,-13.064c1.437,-2.673 20.121,-25.994 21.909,-28.225c4.523,-5.645 9.276,-13.56 9.319,-8.466c0.039,4.537 0.478,55.655 0.362,56.708c-0.334,3.03 -1.384,2.546 -30.828,19.767c-4.509,2.637 -56.263,32.907 -56.425,32.87c-2.442,-0.557 0.558,-1.374 18.505,-25.252Z" style="fill:#F59E0B;"/><path d="M361.177,111.424c-0,-14.144 -1.022,-17.706 3.311,-17.737c16.054,-0.114 16.204,0.161 16.882,0.968c1.129,1.344 0.388,116.123 0.388,116.123c-0.814,2.948 -19.334,1.399 -19.639,1.149c-1.063,-0.87 -0.941,-1.193 -0.941,-100.504Z" style="fill:#F59E0B;"/><path d="M1158.94,213.966c-3.475,-0.115 -26.244,-0.87 -39.899,-17.227c-1.541,-1.845 1.604,-7.563 5.69,-3.274c22.38,23.489 60.429,17.146 66.999,-2.703c7.033,-21.249 -10.387,-29.357 -14.058,-31.192c-18.442,-9.222 -67.671,-10.823 -54.093,-48.19c7.071,-19.46 46.606,-28.811 70.364,-5.983c5.121,4.921 -0.338,8.433 -3.7,4.938c-20.585,-21.396 -56.477,-13.892 -61.59,6.107c-5.594,21.879 18.347,26.872 40.253,33.142c38.876,11.127 33.298,38.781 24.713,50.798c-6.918,9.683 -23.409,13.938 -34.678,13.584Z" style="fill:#F59E0B;"/><path d="M76.377,139.463c-18.565,10.414 -24.664,14.468 -26.735,15.844c-0.2,0.133 -9.481,6.167 -2.741,-1.212c3.972,-4.349 6.193,-6.78 45.185,-58.128c4.856,-6.394 4.628,-7.48 6.207,-6.755c0.027,0.013 0.016,0.005 0.276,17.18c0.276,18.271 1.072,19.68 -2.182,21.511c-1.611,0.907 -11.365,6.397 -20.01,11.56Z" style="fill:#F59E0B;"/><path d="M844.745,151.714c0.236,-14.265 -0.013,-52.704 0.1,-55.473c0.145,-3.551 3.963,-2.395 4.269,-2.232c1.346,0.719 1.158,1.224 1.158,48.892c-0,62.132 -0.159,62.516 1.112,63.478c1.238,0.936 48.466,0.201 55.776,0.442c3.62,0.12 2.819,4.081 2.029,4.865c-1.25,1.242 -62.635,0.888 -63.548,0.197c-1.028,-0.779 -0.895,-1.112 -0.895,-60.168Z" style="fill:#F59E0B;"/></g></svg>